<svg width="207" height="24" viewBox="0 0 207 24" fill="none" xmlns="http://www.w3.org/2000/svg">
<path d="M20.147 8.82031H15.4808C15.3956 8.21662 15.2216 7.6804 14.9588 7.21165C14.696 6.73579 14.3587 6.33097 13.9467 5.99716C13.5348 5.66335 13.0589 5.40767 12.5192 5.23011C11.9865 5.05256 11.4077 4.96378 10.7827 4.96378C9.65341 4.96378 8.66974 5.24432 7.83168 5.8054C6.99361 6.35937 6.34375 7.16903 5.8821 8.23438C5.42045 9.29261 5.18963 10.5781 5.18963 12.0909C5.18963 13.6463 5.42045 14.9531 5.8821 16.0114C6.35085 17.0696 7.00426 17.8686 7.84233 18.4084C8.6804 18.9482 9.64986 19.218 10.7507 19.218C11.3686 19.218 11.9403 19.1364 12.4659 18.973C12.9986 18.8097 13.4709 18.5717 13.8828 18.2592C14.2947 17.9396 14.6357 17.5526 14.9055 17.098C15.1825 16.6435 15.3743 16.125 15.4808 15.5426L20.147 15.5639C20.0263 16.5653 19.7244 17.5312 19.2415 18.4616C18.7656 19.3849 18.1229 20.2124 17.3132 20.9439C16.5107 21.6683 15.5518 22.2436 14.4368 22.6697C13.3288 23.0888 12.0753 23.2983 10.6761 23.2983C8.73011 23.2983 6.99006 22.858 5.45597 21.9773C3.92898 21.0966 2.72159 19.8217 1.83381 18.1527C0.953125 16.4837 0.512784 14.4631 0.512784 12.0909C0.512784 9.71165 0.960227 7.6875 1.85511 6.01847C2.75 4.34943 3.96449 3.07812 5.49858 2.20455C7.03267 1.32386 8.75852 0.883522 10.6761 0.883522C11.9403 0.883522 13.1122 1.06108 14.1918 1.41619C15.2784 1.77131 16.2408 2.28977 17.0788 2.97159C17.9169 3.64631 18.5987 4.47372 19.1243 5.45383C19.657 6.43395 19.9979 7.55611 20.147 8.82031ZM27.908 13.5398V23H23.3697V1.18182H27.7802V9.52344H27.9719C28.3413 8.55753 28.9379 7.80114 29.7617 7.25426C30.5856 6.70028 31.619 6.4233 32.8619 6.4233C33.9982 6.4233 34.989 6.67187 35.8342 7.16903C36.6864 7.65909 37.3469 8.36577 37.8157 9.28906C38.2915 10.2053 38.5259 11.3026 38.5188 12.581V23H33.9805V13.3906C33.9876 12.3821 33.7319 11.5973 33.2134 11.0362C32.7021 10.4751 31.9847 10.1946 31.0614 10.1946C30.4435 10.1946 29.8967 10.326 29.4208 10.5888C28.9521 10.8516 28.5827 11.2351 28.3129 11.7393C28.0501 12.2365 27.9151 12.8366 27.908 13.5398ZM49.5478 23.3196C47.8645 23.3196 46.4157 22.9787 45.2012 22.2969C43.9938 21.608 43.0634 20.6349 42.41 19.3778C41.7566 18.1136 41.4299 16.6186 41.4299 14.8928C41.4299 13.2095 41.7566 11.7322 42.41 10.4609C43.0634 9.18963 43.9831 8.19886 45.1692 7.48864C46.3624 6.77841 47.7615 6.4233 49.3667 6.4233C50.4462 6.4233 51.4512 6.5973 52.3816 6.94531C53.3191 7.28622 54.1358 7.80114 54.8319 8.49006C55.535 9.17898 56.0819 10.0455 56.4725 11.0895C56.8631 12.1264 57.0584 13.3409 57.0584 14.733V15.9794H43.2409V13.1669H52.7864C52.7864 12.5135 52.6444 11.9347 52.3603 11.4304C52.0762 10.9261 51.682 10.532 51.1777 10.2479C50.6806 9.95668 50.1017 9.81108 49.4412 9.81108C48.7523 9.81108 48.1415 9.97088 47.6088 10.2905C47.0833 10.603 46.6713 11.0256 46.373 11.5582C46.0748 12.0838 45.9221 12.6697 45.915 13.3161V15.9901C45.915 16.7997 46.0641 17.4993 46.3624 18.0888C46.6678 18.6783 47.0975 19.1328 47.6515 19.4524C48.2054 19.772 48.8624 19.9318 49.6223 19.9318C50.1266 19.9318 50.5882 19.8608 51.0073 19.7188C51.4263 19.5767 51.785 19.3636 52.0833 19.0795C52.3816 18.7955 52.6088 18.4474 52.7651 18.0355L56.9625 18.3125C56.7495 19.321 56.3127 20.2017 55.6522 20.9545C54.9988 21.7003 54.1536 22.2827 53.1167 22.7017C52.0868 23.1136 50.8972 23.3196 49.5478 23.3196ZM67.4135 23.3196C65.7374 23.3196 64.2956 22.9645 63.0882 22.2543C61.888 21.5369 60.9647 20.5426 60.3184 19.2713C59.6792 18 59.3596 16.5369 59.3596 14.8821C59.3596 13.206 59.6827 11.7358 60.329 10.4716C60.9824 9.20028 61.9093 8.20952 63.1096 7.49929C64.3098 6.78196 65.7374 6.4233 67.3922 6.4233C68.8198 6.4233 70.0698 6.68253 71.1422 7.20099C72.2147 7.71946 73.0634 8.44744 73.6884 9.38494C74.3134 10.3224 74.6578 11.4233 74.7218 12.6875H70.4391C70.3184 11.8707 69.9988 11.2138 69.4803 10.7166C68.9689 10.2124 68.2978 9.96023 67.4668 9.96023C66.7637 9.96023 66.1493 10.152 65.6238 10.5355C65.1053 10.9119 64.7005 11.4624 64.4093 12.1868C64.1181 12.9112 63.9725 13.7884 63.9725 14.8182C63.9725 15.8622 64.1145 16.75 64.3986 17.4815C64.6898 18.2131 65.0982 18.7706 65.6238 19.1541C66.1493 19.5376 66.7637 19.7294 67.4668 19.7294C67.9853 19.7294 68.4505 19.6229 68.8624 19.4098C69.2814 19.1967 69.6259 18.8878 69.8958 18.483C70.1728 18.071 70.3539 17.5774 70.4391 17.0021H74.7218C74.6507 18.2521 74.3098 19.353 73.699 20.3047C73.0953 21.2493 72.2608 21.9879 71.1955 22.5206C70.1301 23.0533 68.8695 23.3196 67.4135 23.3196ZM81.7397 18.2912L81.7504 12.8473H82.4109L87.6523 6.63636H92.8619L85.82 14.8608H84.744L81.7397 18.2912ZM77.6275 23V1.18182H82.1658V23H77.6275ZM87.8548 23L83.0394 15.8729L86.065 12.6662L93.1708 23H87.8548ZM114.129 23V1.18182H122.737C124.392 1.18182 125.801 1.49787 126.966 2.12997C128.131 2.75497 129.019 3.625 129.629 4.74006C130.247 5.84801 130.556 7.12642 130.556 8.57528C130.556 10.0241 130.244 11.3026 129.619 12.4105C128.994 13.5185 128.088 14.3814 126.902 14.9993C125.723 15.6172 124.296 15.9261 122.619 15.9261H117.133V12.2294H121.874C122.762 12.2294 123.493 12.0767 124.068 11.7713C124.651 11.4588 125.084 11.0291 125.368 10.4822C125.659 9.92827 125.805 9.29261 125.805 8.57528C125.805 7.85085 125.659 7.21875 125.368 6.67898C125.084 6.1321 124.651 5.70952 124.068 5.41122C123.486 5.10582 122.747 4.95312 121.852 4.95312H118.742V23H114.129ZM133.467 23V6.63636H137.867V9.49148H138.038C138.336 8.47585 138.837 7.70881 139.54 7.19034C140.243 6.66477 141.053 6.40199 141.969 6.40199C142.196 6.40199 142.441 6.41619 142.704 6.4446C142.967 6.47301 143.197 6.51207 143.396 6.56179V10.5888C143.183 10.5249 142.888 10.468 142.512 10.4183C142.136 10.3686 141.791 10.3438 141.479 10.3438C140.811 10.3438 140.214 10.4893 139.689 10.7805C139.17 11.0646 138.759 11.4624 138.453 11.9737C138.155 12.4851 138.006 13.0746 138.006 13.7422V23H133.467ZM152.374 23.3196C150.72 23.3196 149.289 22.968 148.081 22.2649C146.881 21.5547 145.954 20.5675 145.301 19.3033C144.647 18.032 144.32 16.5582 144.32 14.8821C144.32 13.1918 144.647 11.7145 145.301 10.4503C145.954 9.17898 146.881 8.19176 148.081 7.48864C149.289 6.77841 150.72 6.4233 152.374 6.4233C154.029 6.4233 155.457 6.77841 156.657 7.48864C157.865 8.19176 158.795 9.17898 159.448 10.4503C160.102 11.7145 160.428 13.1918 160.428 14.8821C160.428 16.5582 160.102 18.032 159.448 19.3033C158.795 20.5675 157.865 21.5547 156.657 22.2649C155.457 22.968 154.029 23.3196 152.374 23.3196ZM152.396 19.804C153.149 19.804 153.777 19.5909 154.281 19.1648C154.786 18.7315 155.166 18.142 155.421 17.3963C155.684 16.6506 155.816 15.8018 155.816 14.8501C155.816 13.8984 155.684 13.0497 155.421 12.304C155.166 11.5582 154.786 10.9687 154.281 10.5355C153.777 10.1023 153.149 9.88565 152.396 9.88565C151.636 9.88565 150.997 10.1023 150.478 10.5355C149.967 10.9687 149.58 11.5582 149.317 12.304C149.061 13.0497 148.933 13.8984 148.933 14.8501C148.933 15.8018 149.061 16.6506 149.317 17.3963C149.58 18.142 149.967 18.7315 150.478 19.1648C150.997 19.5909 151.636 19.804 152.396 19.804ZM163.379 23V6.63636H167.705V9.52344H167.896C168.237 8.56463 168.806 7.80824 169.601 7.25426C170.396 6.70028 171.348 6.4233 172.456 6.4233C173.578 6.4233 174.534 6.70384 175.322 7.26491C176.11 7.81889 176.636 8.57173 176.899 9.52344H177.069C177.403 8.58594 178.007 7.83665 178.88 7.27557C179.761 6.70739 180.801 6.4233 182.002 6.4233C183.529 6.4233 184.768 6.9098 185.72 7.88281C186.678 8.84872 187.158 10.2195 187.158 11.995V23H182.63V12.8899C182.63 11.9808 182.389 11.299 181.906 10.8445C181.423 10.3899 180.819 10.1626 180.095 10.1626C179.271 10.1626 178.628 10.4254 178.166 10.951C177.705 11.4695 177.474 12.1548 177.474 13.0071V23H173.074V12.794C173.074 11.9915 172.843 11.3523 172.382 10.8764C171.927 10.4006 171.327 10.1626 170.581 10.1626C170.077 10.1626 169.622 10.2905 169.218 10.5462C168.82 10.7947 168.504 11.1463 168.269 11.6009C168.035 12.0483 167.918 12.5739 167.918 13.1776V23H163.379ZM198.136 23.3196C196.481 23.3196 195.05 22.968 193.843 22.2649C192.643 21.5547 191.716 20.5675 191.062 19.3033C190.409 18.032 190.082 16.5582 190.082 14.8821C190.082 13.1918 190.409 11.7145 191.062 10.4503C191.716 9.17898 192.643 8.19176 193.843 7.48864C195.05 6.77841 196.481 6.4233 198.136 6.4233C199.791 6.4233 201.219 6.77841 202.419 7.48864C203.626 8.19176 204.557 9.17898 205.21 10.4503C205.863 11.7145 206.19 13.1918 206.19 14.8821C206.19 16.5582 205.863 18.032 205.21 19.3033C204.557 20.5675 203.626 21.5547 202.419 22.2649C201.219 22.968 199.791 23.3196 198.136 23.3196ZM198.157 19.804C198.91 19.804 199.539 19.5909 200.043 19.1648C200.547 18.7315 200.927 18.142 201.183 17.3963C201.446 16.6506 201.577 15.8018 201.577 14.8501C201.577 13.8984 201.446 13.0497 201.183 12.304C200.927 11.5582 200.547 10.9687 200.043 10.5355C199.539 10.1023 198.91 9.88565 198.157 9.88565C197.398 9.88565 196.758 10.1023 196.24 10.5355C195.729 10.9687 195.341 11.5582 195.079 12.304C194.823 13.0497 194.695 13.8984 194.695 14.8501C194.695 15.8018 194.823 16.6506 195.079 17.3963C195.341 18.142 195.729 18.7315 196.24 19.1648C196.758 19.5909 197.398 19.804 198.157 19.804Z" fill="#0E243A"/>
<path d="M93.3386 19.1648V15.532L102.447 1.18182H105.579V6.21023H103.726L97.9835 15.2976V15.468H110.927V19.1648H93.3386ZM103.811 23V18.0568L103.896 16.4482V1.18182H108.221V23H103.811Z" fill="#39B54A"/>
</svg>
