<svg width="208" height="24" viewBox="0 0 208 24" fill="none" xmlns="http://www.w3.org/2000/svg">
<path d="M20.147 8.82031H15.4808C15.3956 8.21662 15.2216 7.6804 14.9588 7.21165C14.696 6.73579 14.3587 6.33097 13.9467 5.99716C13.5348 5.66335 13.0589 5.40767 12.5192 5.23011C11.9865 5.05256 11.4077 4.96378 10.7827 4.96378C9.65341 4.96378 8.66974 5.24432 7.83168 5.8054C6.99361 6.35937 6.34375 7.16903 5.8821 8.23438C5.42045 9.29261 5.18963 10.5781 5.18963 12.0909C5.18963 13.6463 5.42045 14.9531 5.8821 16.0114C6.35085 17.0696 7.00426 17.8686 7.84233 18.4084C8.6804 18.9482 9.64986 19.218 10.7507 19.218C11.3686 19.218 11.9403 19.1364 12.4659 18.973C12.9986 18.8097 13.4709 18.5717 13.8828 18.2592C14.2947 17.9396 14.6357 17.5526 14.9055 17.098C15.1825 16.6435 15.3743 16.125 15.4808 15.5426L20.147 15.5639C20.0263 16.5653 19.7244 17.5312 19.2415 18.4616C18.7656 19.3849 18.1229 20.2124 17.3132 20.9439C16.5107 21.6683 15.5518 22.2436 14.4368 22.6697C13.3288 23.0888 12.0753 23.2983 10.6761 23.2983C8.73011 23.2983 6.99006 22.858 5.45597 21.9773C3.92898 21.0966 2.72159 19.8217 1.83381 18.1527C0.953125 16.4837 0.512784 14.4631 0.512784 12.0909C0.512784 9.71165 0.960227 7.6875 1.85511 6.01847C2.75 4.34943 3.96449 3.07812 5.49858 2.20455C7.03267 1.32386 8.75852 0.883522 10.6761 0.883522C11.9403 0.883522 13.1122 1.06108 14.1918 1.41619C15.2784 1.77131 16.2408 2.28977 17.0788 2.97159C17.9169 3.64631 18.5987 4.47372 19.1243 5.45383C19.657 6.43395 19.9979 7.55611 20.147 8.82031ZM27.908 13.5398V23H23.3697V1.18182H27.7802V9.52344H27.9719C28.3413 8.55753 28.9379 7.80114 29.7617 7.25426C30.5856 6.70028 31.619 6.4233 32.8619 6.4233C33.9982 6.4233 34.989 6.67187 35.8342 7.16903C36.6864 7.65909 37.3469 8.36577 37.8157 9.28906C38.2915 10.2053 38.5259 11.3026 38.5188 12.581V23H33.9805V13.3906C33.9876 12.3821 33.7319 11.5973 33.2134 11.0362C32.7021 10.4751 31.9847 10.1946 31.0614 10.1946C30.4435 10.1946 29.8967 10.326 29.4208 10.5888C28.9521 10.8516 28.5827 11.2351 28.3129 11.7393C28.0501 12.2365 27.9151 12.8366 27.908 13.5398ZM49.5478 23.3196C47.8645 23.3196 46.4157 22.9787 45.2012 22.2969C43.9938 21.608 43.0634 20.6349 42.41 19.3778C41.7566 18.1136 41.4299 16.6186 41.4299 14.8928C41.4299 13.2095 41.7566 11.7322 42.41 10.4609C43.0634 9.18963 43.9831 8.19886 45.1692 7.48864C46.3624 6.77841 47.7615 6.4233 49.3667 6.4233C50.4462 6.4233 51.4512 6.5973 52.3816 6.94531C53.3191 7.28622 54.1358 7.80114 54.8319 8.49006C55.535 9.17898 56.0819 10.0455 56.4725 11.0895C56.8631 12.1264 57.0584 13.3409 57.0584 14.733V15.9794H43.2409V13.1669H52.7864C52.7864 12.5135 52.6444 11.9347 52.3603 11.4304C52.0762 10.9261 51.682 10.532 51.1777 10.2479C50.6806 9.95668 50.1017 9.81108 49.4412 9.81108C48.7523 9.81108 48.1415 9.97088 47.6088 10.2905C47.0833 10.603 46.6713 11.0256 46.373 11.5582C46.0748 12.0838 45.9221 12.6697 45.915 13.3161V15.9901C45.915 16.7997 46.0641 17.4993 46.3624 18.0888C46.6678 18.6783 47.0975 19.1328 47.6515 19.4524C48.2054 19.772 48.8624 19.9318 49.6223 19.9318C50.1266 19.9318 50.5882 19.8608 51.0073 19.7188C51.4263 19.5767 51.785 19.3636 52.0833 19.0795C52.3816 18.7955 52.6088 18.4474 52.7651 18.0355L56.9625 18.3125C56.7495 19.321 56.3127 20.2017 55.6522 20.9545C54.9988 21.7003 54.1536 22.2827 53.1167 22.7017C52.0868 23.1136 50.8972 23.3196 49.5478 23.3196ZM67.4135 23.3196C65.7374 23.3196 64.2956 22.9645 63.0882 22.2543C61.888 21.5369 60.9647 20.5426 60.3184 19.2713C59.6792 18 59.3596 16.5369 59.3596 14.8821C59.3596 13.206 59.6827 11.7358 60.329 10.4716C60.9824 9.20028 61.9093 8.20952 63.1096 7.49929C64.3098 6.78196 65.7374 6.4233 67.3922 6.4233C68.8198 6.4233 70.0698 6.68253 71.1422 7.20099C72.2147 7.71946 73.0634 8.44744 73.6884 9.38494C74.3134 10.3224 74.6578 11.4233 74.7218 12.6875H70.4391C70.3184 11.8707 69.9988 11.2138 69.4803 10.7166C68.9689 10.2124 68.2978 9.96023 67.4668 9.96023C66.7637 9.96023 66.1493 10.152 65.6238 10.5355C65.1053 10.9119 64.7005 11.4624 64.4093 12.1868C64.1181 12.9112 63.9725 13.7884 63.9725 14.8182C63.9725 15.8622 64.1145 16.75 64.3986 17.4815C64.6898 18.2131 65.0982 18.7706 65.6238 19.1541C66.1493 19.5376 66.7637 19.7294 67.4668 19.7294C67.9853 19.7294 68.4505 19.6229 68.8624 19.4098C69.2814 19.1967 69.6259 18.8878 69.8958 18.483C70.1728 18.071 70.3539 17.5774 70.4391 17.0021H74.7218C74.6507 18.2521 74.3098 19.353 73.699 20.3047C73.0953 21.2493 72.2608 21.9879 71.1955 22.5206C70.1301 23.0533 68.8695 23.3196 67.4135 23.3196ZM81.7397 18.2912L81.7504 12.8473H82.4109L87.6523 6.63636H92.8619L85.82 14.8608H84.744L81.7397 18.2912ZM77.6275 23V1.18182H82.1658V23H77.6275ZM87.8548 23L83.0394 15.8729L86.065 12.6662L93.1708 23H87.8548ZM115.506 23V1.18182H124.114C125.768 1.18182 127.178 1.49787 128.343 2.12997C129.508 2.75497 130.396 3.625 131.006 4.74006C131.624 5.84801 131.933 7.12642 131.933 8.57528C131.933 10.0241 131.621 11.3026 130.996 12.4105C130.371 13.5185 129.465 14.3814 128.279 14.9993C127.1 15.6172 125.673 15.9261 123.996 15.9261H118.51V12.2294H123.251C124.138 12.2294 124.87 12.0767 125.445 11.7713C126.028 11.4588 126.461 11.0291 126.745 10.4822C127.036 9.92827 127.182 9.29261 127.182 8.57528C127.182 7.85085 127.036 7.21875 126.745 6.67898C126.461 6.1321 126.028 5.70952 125.445 5.41122C124.863 5.10582 124.124 4.95312 123.229 4.95312H120.119V23H115.506ZM134.844 23V6.63636H139.244V9.49148H139.415C139.713 8.47585 140.214 7.70881 140.917 7.19034C141.62 6.66477 142.43 6.40199 143.346 6.40199C143.573 6.40199 143.818 6.41619 144.081 6.4446C144.344 6.47301 144.574 6.51207 144.773 6.56179V10.5888C144.56 10.5249 144.265 10.468 143.889 10.4183C143.513 10.3686 143.168 10.3438 142.856 10.3438C142.188 10.3438 141.591 10.4893 141.066 10.7805C140.547 11.0646 140.135 11.4624 139.83 11.9737C139.532 12.4851 139.383 13.0746 139.383 13.7422V23H134.844ZM153.751 23.3196C152.097 23.3196 150.665 22.968 149.458 22.2649C148.258 21.5547 147.331 20.5675 146.678 19.3033C146.024 18.032 145.697 16.5582 145.697 14.8821C145.697 13.1918 146.024 11.7145 146.678 10.4503C147.331 9.17898 148.258 8.19176 149.458 7.48864C150.665 6.77841 152.097 6.4233 153.751 6.4233C155.406 6.4233 156.834 6.77841 158.034 7.48864C159.241 8.19176 160.172 9.17898 160.825 10.4503C161.479 11.7145 161.805 13.1918 161.805 14.8821C161.805 16.5582 161.479 18.032 160.825 19.3033C160.172 20.5675 159.241 21.5547 158.034 22.2649C156.834 22.968 155.406 23.3196 153.751 23.3196ZM153.773 19.804C154.526 19.804 155.154 19.5909 155.658 19.1648C156.163 18.7315 156.543 18.142 156.798 17.3963C157.061 16.6506 157.192 15.8018 157.192 14.8501C157.192 13.8984 157.061 13.0497 156.798 12.304C156.543 11.5582 156.163 10.9687 155.658 10.5355C155.154 10.1023 154.526 9.88565 153.773 9.88565C153.013 9.88565 152.374 10.1023 151.855 10.5355C151.344 10.9687 150.957 11.5582 150.694 12.304C150.438 13.0497 150.31 13.8984 150.31 14.8501C150.31 15.8018 150.438 16.6506 150.694 17.3963C150.957 18.142 151.344 18.7315 151.855 19.1648C152.374 19.5909 153.013 19.804 153.773 19.804ZM164.756 23V6.63636H169.082V9.52344H169.273C169.614 8.56463 170.183 7.80824 170.978 7.25426C171.773 6.70028 172.725 6.4233 173.833 6.4233C174.955 6.4233 175.911 6.70384 176.699 7.26491C177.487 7.81889 178.013 8.57173 178.276 9.52344H178.446C178.78 8.58594 179.384 7.83665 180.257 7.27557C181.138 6.70739 182.178 6.4233 183.379 6.4233C184.906 6.4233 186.145 6.9098 187.097 7.88281C188.055 8.84872 188.535 10.2195 188.535 11.995V23H184.007V12.8899C184.007 11.9808 183.766 11.299 183.283 10.8445C182.8 10.3899 182.196 10.1626 181.472 10.1626C180.648 10.1626 180.005 10.4254 179.543 10.951C179.082 11.4695 178.851 12.1548 178.851 13.0071V23H174.451V12.794C174.451 11.9915 174.22 11.3523 173.759 10.8764C173.304 10.4006 172.704 10.1626 171.958 10.1626C171.454 10.1626 170.999 10.2905 170.594 10.5462C170.197 10.7947 169.881 11.1463 169.646 11.6009C169.412 12.0483 169.295 12.5739 169.295 13.1776V23H164.756ZM199.513 23.3196C197.858 23.3196 196.427 22.968 195.22 22.2649C194.02 21.5547 193.093 20.5675 192.439 19.3033C191.786 18.032 191.459 16.5582 191.459 14.8821C191.459 13.1918 191.786 11.7145 192.439 10.4503C193.093 9.17898 194.02 8.19176 195.22 7.48864C196.427 6.77841 197.858 6.4233 199.513 6.4233C201.168 6.4233 202.596 6.77841 203.796 7.48864C205.003 8.19176 205.934 9.17898 206.587 10.4503C207.24 11.7145 207.567 13.1918 207.567 14.8821C207.567 16.5582 207.24 18.032 206.587 19.3033C205.934 20.5675 205.003 21.5547 203.796 22.2649C202.596 22.968 201.168 23.3196 199.513 23.3196ZM199.534 19.804C200.287 19.804 200.916 19.5909 201.42 19.1648C201.924 18.7315 202.304 18.142 202.56 17.3963C202.823 16.6506 202.954 15.8018 202.954 14.8501C202.954 13.8984 202.823 13.0497 202.56 12.304C202.304 11.5582 201.924 10.9687 201.42 10.5355C200.916 10.1023 200.287 9.88565 199.534 9.88565C198.775 9.88565 198.135 10.1023 197.617 10.5355C197.105 10.9687 196.718 11.5582 196.456 12.304C196.2 13.0497 196.072 13.8984 196.072 14.8501C196.072 15.8018 196.2 16.6506 196.456 17.3963C196.718 18.142 197.105 18.7315 197.617 19.1648C198.135 19.5909 198.775 19.804 199.534 19.804Z" fill="white"/>
<path d="M94.7156 19.1648V15.532L103.824 1.18182H106.956V6.21023H105.103L99.3604 15.2976V15.468H112.304V19.1648H94.7156ZM105.188 23V18.0568L105.273 16.4482V1.18182H109.598V23H105.188Z" fill="#39B54A"/>
</svg>
